<svg xmlns="http://www.w3.org/2000/svg" xmlns:xlink="http://www.w3.org/1999/xlink" width="1200" height="1200" viewBox="0 0 1200 1200"><svg viewBox="0 0 99.999997 99.999997"><g transform="translate(-149.6453,-589.21878)"><path d="m 199.64552,591.21879 a 48.000099,48.000099 0 0 0 -48.00022,48.00022 48.000099,48.000099 0 0 0 48.00022,47.99977 48.000099,48.000099 0 0 0 47.99977,-47.99977 48.000099,48.000099 0 0 0 -47.99977,-48.00022 z m 0,5.42088 a 42.107528,42.578935 0 0 1 42.10718,42.57934 42.107528,42.578935 0 0 1 -42.10718,42.57887 42.107528,42.578935 0 0 1 -42.10763,-42.57887 42.107528,42.578935 0 0 1 42.10763,-42.57934 z" fill="#1A1A1A"></path></g></svg><g transform="translate(600 600) scale(0.69 0.69) rotate(0) translate(-600 -600)" style="fill:#1A1A1A"><svg fill="#1A1A1A" xmlns="http://www.w3.org/2000/svg" xmlns:xlink="http://www.w3.org/1999/xlink" version="1.1" x="0px" y="0px" viewBox="0 0 208 176" enable-background="new 0 0 208 176" xml:space="preserve"><g><polygon points="149.7148438,33.2070313 158.7929688,42.2890625 131.4375,69.6445313 155.9990234,82.6630859    177.5839844,61.0761719 186.6621094,70.15625 186.6621094,33.2050781  "></polygon><polygon points="51.2924805,42.2851563 60.3706055,33.2050781 23.4194336,33.2050781 23.4213867,70.1523438 32.503418,61.0722656    53.65625,82.2250977 78.2138672,69.2124023  "></polygon><polygon points="104.4140625,59.2202148 54.2514648,85.8051758 104.4140625,113.3837891 154.5849609,85.8051758  "></polygon><polygon points="155.8193359,119.9130859 155.8193359,90.5625 104.0976563,118.9990234 54.3569336,90.5625 54.28125,119.6738281    104.0976563,149.6455078  "></polygon></g></svg></g></svg>